<svg xmlns="http://www.w3.org/2000/svg" viewBox="0 0 1500 800">
    <defs><pattern id="dots" width="14" height="14" patternUnits="userSpaceOnUse">
    <circle cx="1" cy="1" r="0.8" fill="#1F2933"/>
  </pattern></defs>
  <rect width="1500" height="800" fill="#0A0E13"/>
  <rect width="1500" height="800" fill="url(#dots)" opacity="0.5"/>
    <text x="60" y="40" fill="#5C6B7A" font-family="JetBrains Mono, monospace" font-size="13" letter-spacing="2">// SHORTEST DISTANCE WITH XY ROUTING · WRAP-AWARE</text>
    <text x="60" y="100" fill="#D7E1EA" font-family="JetBrains Mono, monospace" font-size="44" font-weight="700">Torus tie-split routing</text>
    <text x="60" y="135" fill="#5C6B7A" font-family="JetBrains Mono, monospace" font-size="15">fdx = (dst_x − my_x) mod 4. Pick the closer side. Distance-2 ties split by coord to kill the ring cycle.</text><rect x="88" y="208" width="94" height="94" rx="6" fill="#1B2230" stroke="#3B4654" stroke-width="1"/>
            <text x="135" y="259" fill="#5C6B7A" font-family="JetBrains Mono, monospace" font-size="11" text-anchor="middle">(0,0)</text><rect x="198" y="208" width="94" height="94" rx="6" fill="#1B2230" stroke="#3B4654" stroke-width="1"/>
            <text x="245" y="259" fill="#5C6B7A" font-family="JetBrains Mono, monospace" font-size="11" text-anchor="middle">(1,0)</text><rect x="308" y="208" width="94" height="94" rx="6" fill="#1B2230" stroke="#3B4654" stroke-width="1"/>
            <text x="355" y="259" fill="#5C6B7A" font-family="JetBrains Mono, monospace" font-size="11" text-anchor="middle">(2,0)</text><rect x="418" y="208" width="94" height="94" rx="6" fill="#1B2230" stroke="#3B4654" stroke-width="1"/>
            <text x="465" y="259" fill="#5C6B7A" font-family="JetBrains Mono, monospace" font-size="11" text-anchor="middle">(3,0)</text><rect x="88" y="318" width="94" height="94" rx="6" fill="#1B2230" stroke="#3B4654" stroke-width="1"/>
            <text x="135" y="369" fill="#5C6B7A" font-family="JetBrains Mono, monospace" font-size="11" text-anchor="middle">(0,1)</text><rect x="198" y="318" width="94" height="94" rx="6" fill="#1B2230" stroke="#3B4654" stroke-width="1"/>
            <text x="245" y="369" fill="#5C6B7A" font-family="JetBrains Mono, monospace" font-size="11" text-anchor="middle">(1,1)</text><rect x="308" y="318" width="94" height="94" rx="6" fill="#1B2230" stroke="#3B4654" stroke-width="1"/>
            <text x="355" y="369" fill="#5C6B7A" font-family="JetBrains Mono, monospace" font-size="11" text-anchor="middle">(2,1)</text><rect x="418" y="318" width="94" height="94" rx="6" fill="#1B2230" stroke="#3B4654" stroke-width="1"/>
            <text x="465" y="369" fill="#5C6B7A" font-family="JetBrains Mono, monospace" font-size="11" text-anchor="middle">(3,1)</text><rect x="88" y="428" width="94" height="94" rx="6" fill="#1B2230" stroke="#3B4654" stroke-width="1"/>
            <text x="135" y="479" fill="#5C6B7A" font-family="JetBrains Mono, monospace" font-size="11" text-anchor="middle">(0,2)</text><rect x="198" y="428" width="94" height="94" rx="6" fill="#1B2230" stroke="#3B4654" stroke-width="1"/>
            <text x="245" y="479" fill="#5C6B7A" font-family="JetBrains Mono, monospace" font-size="11" text-anchor="middle">(1,2)</text><rect x="308" y="428" width="94" height="94" rx="6" fill="#1B2230" stroke="#3B4654" stroke-width="1"/>
            <text x="355" y="479" fill="#5C6B7A" font-family="JetBrains Mono, monospace" font-size="11" text-anchor="middle">(2,2)</text><rect x="418" y="428" width="94" height="94" rx="6" fill="#1B2230" stroke="#3B4654" stroke-width="1"/>
            <text x="465" y="479" fill="#5C6B7A" font-family="JetBrains Mono, monospace" font-size="11" text-anchor="middle">(3,2)</text><rect x="88" y="538" width="94" height="94" rx="6" fill="#1B2230" stroke="#3B4654" stroke-width="1"/>
            <text x="135" y="589" fill="#5C6B7A" font-family="JetBrains Mono, monospace" font-size="11" text-anchor="middle">(0,3)</text><rect x="198" y="538" width="94" height="94" rx="6" fill="#1B2230" stroke="#3B4654" stroke-width="1"/>
            <text x="245" y="589" fill="#5C6B7A" font-family="JetBrains Mono, monospace" font-size="11" text-anchor="middle">(1,3)</text><rect x="308" y="538" width="94" height="94" rx="6" fill="#1B2230" stroke="#3B4654" stroke-width="1"/>
            <text x="355" y="589" fill="#5C6B7A" font-family="JetBrains Mono, monospace" font-size="11" text-anchor="middle">(2,3)</text><rect x="418" y="538" width="94" height="94" rx="6" fill="#1B2230" stroke="#3B4654" stroke-width="1"/>
            <text x="465" y="589" fill="#5C6B7A" font-family="JetBrains Mono, monospace" font-size="11" text-anchor="middle">(3,3)</text><circle cx="245" cy="365" r="18" fill="#5BD982" opacity="0.8"/>
        <text x="245" y="370" fill="#0A0E13" font-family="JetBrains Mono, monospace" font-size="11" font-weight="700" text-anchor="middle">SRC</text>
        <circle cx="465" cy="585" r="18" fill="#F5B14B" opacity="0.9"/>
        <text x="465" y="590" fill="#0A0E13" font-family="JetBrains Mono, monospace" font-size="11" font-weight="700" text-anchor="middle">DST</text><line x1="267" y1="365" x2="333" y2="365" stroke="#65D7E5" stroke-width="3"/>
            <polygon points="333,365 323,371 323,359" fill="#65D7E5"/>
            <text x="289" y="355" fill="#65D7E5" font-family="JetBrains Mono, monospace" font-size="11" text-anchor="middle">E</text><line x1="377" y1="365" x2="443" y2="365" stroke="#65D7E5" stroke-width="3"/>
            <polygon points="443,365 433,371 433,359" fill="#65D7E5"/>
            <text x="399" y="355" fill="#65D7E5" font-family="JetBrains Mono, monospace" font-size="11" text-anchor="middle">E</text><line x1="465" y1="387" x2="465" y2="453" stroke="#F076B0" stroke-width="3"/>
            <polygon points="465,453 459,443 471,443" fill="#F076B0"/>
            <text x="465" y="399" fill="#F076B0" font-family="JetBrains Mono, monospace" font-size="11" text-anchor="middle">N</text><line x1="465" y1="497" x2="465" y2="563" stroke="#F076B0" stroke-width="3"/>
            <polygon points="465,563 459,553 471,553" fill="#F076B0"/>
            <text x="465" y="509" fill="#F076B0" font-family="JetBrains Mono, monospace" font-size="11" text-anchor="middle">N</text><rect x="700" y="200" width="760" height="460" rx="6" fill="#11161D" stroke="#3B4654" stroke-width="1"/>
<circle cx="716" cy="222" r="3.5" fill="#5BD982"/>
<text x="728" y="227" fill="#D7E1EA" font-family="JetBrains Mono, monospace" font-size="12" font-weight="600" letter-spacing="2">● HOP TRACE  (1,1) → (3,3)</text>
<text x="716" y="256" font-family="JetBrains Mono, monospace" font-size="13"><tspan x="716" fill="#D7E1EA">at (1,1) : fdx=2 tie, my_x&lt;2 → </tspan><tspan fill="#65D7E5">EAST</tspan></text>
<text x="716" y="278" font-family="JetBrains Mono, monospace" font-size="13"><tspan x="716" fill="#D7E1EA">at (2,1) : fdx=1            → </tspan><tspan fill="#65D7E5">EAST</tspan></text>
<text x="716" y="300" font-family="JetBrains Mono, monospace" font-size="13"><tspan x="716" fill="#D7E1EA">at (3,1) : fdx=0, fdy=2 tie  </tspan></text>
<text x="716" y="322" font-family="JetBrains Mono, monospace" font-size="13"><tspan x="716" fill="#D7E1EA">           my_y&lt;2 → </tspan><tspan fill="#F076B0">NORTH</tspan></text>
<text x="716" y="344" font-family="JetBrains Mono, monospace" font-size="13"><tspan x="716" fill="#D7E1EA">at (3,2) : fdy=1            → </tspan><tspan fill="#F076B0">NORTH</tspan></text>
<text x="716" y="366" font-family="JetBrains Mono, monospace" font-size="13"><tspan x="716" fill="#D7E1EA">at (3,3) : DST              → </tspan><tspan fill="#5BD982">LOCAL</tspan></text>
<text x="716" y="394" fill="#5C6B7A" font-family="JetBrains Mono, monospace" font-size="10" letter-spacing="2">PROPERTIES</text>
<text x="716" y="412" font-family="JetBrains Mono, monospace" font-size="13"><tspan x="716" fill="#D7E1EA">4 hops, all minimal</tspan></text>
<text x="716" y="434" font-family="JetBrains Mono, monospace" font-size="13"><tspan x="716" fill="#D7E1EA">Channel-dep graph is acyclic</tspan></text>
<text x="716" y="456" font-family="JetBrains Mono, monospace" font-size="13"><tspan x="716" fill="#D7E1EA">No virtual channels required</tspan></text><rect x="60" y="640" width="600" height="140" rx="6" fill="#11161D" stroke="#3B4654" stroke-width="1"/>
        <text x="74" y="660" fill="#5C6B7A" font-family="JetBrains Mono, monospace" font-size="10" letter-spacing="1">// xy_route_logic — torus tie-split</text>
        <text x="74" y="685" fill="#D7E1EA" font-family="JetBrains Mono, monospace" font-size="12">fdx = (dst_x − my_x) &amp; 2'b11;</text>
        <text x="74" y="703" fill="#D7E1EA" font-family="JetBrains Mono, monospace" font-size="12">if      (fdx == 1) out_port = E;</text>
        <text x="74" y="721" fill="#D7E1EA" font-family="JetBrains Mono, monospace" font-size="12">else if (fdx == 3) out_port = W;</text>
        <text x="74" y="739" fill="#D7E1EA" font-family="JetBrains Mono, monospace" font-size="12">else if (fdx == 2) out_port = (my_x &lt; 2) ? E : W;  </text>
        <text x="74" y="757" fill="#5C6B7A" font-family="JetBrains Mono, monospace" font-size="11">// Y dimension symmetric, runs after X is resolved</text></svg>