<svg xmlns="http://www.w3.org/2000/svg" viewBox="0 0 900 900">
    <defs><pattern id="dots" width="14" height="14" patternUnits="userSpaceOnUse">
    <circle cx="1" cy="1" r="0.8" fill="#1F2933"/>
  </pattern></defs>
  <rect width="900" height="900" fill="#0A0E13"/>
  <rect width="900" height="900" fill="url(#dots)" opacity="0.5"/>
    <text x="60" y="50" fill="#5C6B7A" font-family="JetBrains Mono, monospace" font-size="13" letter-spacing="2">// 4×4 TORUS · 16 ROUTERS · WRAP-AROUND LINKS</text>
    <text x="60" y="100" fill="#D7E1EA" font-family="JetBrains Mono, monospace" font-size="42" font-weight="700">router_with_fifo</text>
    <text x="60" y="135" fill="#F5B14B" font-family="JetBrains Mono, monospace" font-size="16" font-weight="500">input FIFOs · depth=N</text><path d="M 740 270 Q 800 220 810 170
      L 40 170 Q 50 220 90 270"
      stroke="#3B4654" stroke-width="1.5" fill="none" stroke-dasharray="4,3"/><path d="M 740 440 Q 800 390 810 170
      L 40 170 Q 50 390 90 440"
      stroke="#3B4654" stroke-width="1.5" fill="none" stroke-dasharray="4,3"/><path d="M 740 610 Q 800 560 810 170
      L 40 170 Q 50 560 90 610"
      stroke="#3B4654" stroke-width="1.5" fill="none" stroke-dasharray="4,3"/><path d="M 740 780 Q 800 730 810 170
      L 40 170 Q 50 730 90 780"
      stroke="#3B4654" stroke-width="1.5" fill="none" stroke-dasharray="4,3"/><path d="M 170 840 Q 210 900 840 910
      L 840 150 Q 210 150 170 190"
      stroke="#3B4654" stroke-width="1.5" fill="none" stroke-dasharray="4,3" opacity="0.5"/><path d="M 340 840 Q 380 900 840 910
      L 840 150 Q 380 150 340 190"
      stroke="#3B4654" stroke-width="1.5" fill="none" stroke-dasharray="4,3" opacity="0.5"/><path d="M 510 840 Q 550 900 840 910
      L 840 150 Q 550 150 510 190"
      stroke="#3B4654" stroke-width="1.5" fill="none" stroke-dasharray="4,3" opacity="0.5"/><path d="M 680 840 Q 720 900 840 910
      L 840 150 Q 720 150 680 190"
      stroke="#3B4654" stroke-width="1.5" fill="none" stroke-dasharray="4,3" opacity="0.5"/><line x1="240" y1="270" x2="270" y2="270" stroke="#5C6B7A" stroke-width="1.5"/><line x1="410" y1="270" x2="440" y2="270" stroke="#5C6B7A" stroke-width="1.5"/><line x1="580" y1="270" x2="610" y2="270" stroke="#5C6B7A" stroke-width="1.5"/><line x1="240" y1="440" x2="270" y2="440" stroke="#5C6B7A" stroke-width="1.5"/><line x1="410" y1="440" x2="440" y2="440" stroke="#5C6B7A" stroke-width="1.5"/><line x1="580" y1="440" x2="610" y2="440" stroke="#5C6B7A" stroke-width="1.5"/><line x1="240" y1="610" x2="270" y2="610" stroke="#5C6B7A" stroke-width="1.5"/><line x1="410" y1="610" x2="440" y2="610" stroke="#5C6B7A" stroke-width="1.5"/><line x1="580" y1="610" x2="610" y2="610" stroke="#5C6B7A" stroke-width="1.5"/><line x1="240" y1="780" x2="270" y2="780" stroke="#5C6B7A" stroke-width="1.5"/><line x1="410" y1="780" x2="440" y2="780" stroke="#5C6B7A" stroke-width="1.5"/><line x1="580" y1="780" x2="610" y2="780" stroke="#5C6B7A" stroke-width="1.5"/><line x1="170" y1="340" x2="170" y2="370" stroke="#5C6B7A" stroke-width="1.5"/><line x1="170" y1="510" x2="170" y2="540" stroke="#5C6B7A" stroke-width="1.5"/><line x1="170" y1="680" x2="170" y2="710" stroke="#5C6B7A" stroke-width="1.5"/><line x1="340" y1="340" x2="340" y2="370" stroke="#5C6B7A" stroke-width="1.5"/><line x1="340" y1="510" x2="340" y2="540" stroke="#5C6B7A" stroke-width="1.5"/><line x1="340" y1="680" x2="340" y2="710" stroke="#5C6B7A" stroke-width="1.5"/><line x1="510" y1="340" x2="510" y2="370" stroke="#5C6B7A" stroke-width="1.5"/><line x1="510" y1="510" x2="510" y2="540" stroke="#5C6B7A" stroke-width="1.5"/><line x1="510" y1="680" x2="510" y2="710" stroke="#5C6B7A" stroke-width="1.5"/><line x1="680" y1="340" x2="680" y2="370" stroke="#5C6B7A" stroke-width="1.5"/><line x1="680" y1="510" x2="680" y2="540" stroke="#5C6B7A" stroke-width="1.5"/><line x1="680" y1="680" x2="680" y2="710" stroke="#5C6B7A" stroke-width="1.5"/><rect x="100" y="200" width="140" height="140" rx="10"
              fill="#1B2230" stroke="#F5B14B" stroke-width="1.5"/><rect x="122" y="255" width="18" height="30" rx="2" fill="#0A0E13" stroke="#F5B14B" stroke-width="1"/><rect x="144" y="255" width="18" height="30" rx="2" fill="#0A0E13" stroke="#F5B14B" stroke-width="1"/><rect x="166" y="255" width="18" height="30" rx="2" fill="transparent" stroke="#3B4654" stroke-width="1"/><rect x="188" y="255" width="18" height="30" rx="2" fill="transparent" stroke="#3B4654" stroke-width="1"/><text x="170" y="305" fill="#F5B14B" font-family="JetBrains Mono, monospace" font-size="9" text-anchor="middle">FIFO</text><text x="170" y="328" fill="#D7E1EA" font-family="JetBrains Mono, monospace" font-size="12" font-weight="700" text-anchor="middle">(0,0)  id=0</text><rect x="270" y="200" width="140" height="140" rx="10"
              fill="#1B2230" stroke="#F5B14B" stroke-width="1.5"/><rect x="292" y="255" width="18" height="30" rx="2" fill="#0A0E13" stroke="#F5B14B" stroke-width="1"/><rect x="314" y="255" width="18" height="30" rx="2" fill="#0A0E13" stroke="#F5B14B" stroke-width="1"/><rect x="336" y="255" width="18" height="30" rx="2" fill="transparent" stroke="#3B4654" stroke-width="1"/><rect x="358" y="255" width="18" height="30" rx="2" fill="transparent" stroke="#3B4654" stroke-width="1"/><text x="340" y="305" fill="#F5B14B" font-family="JetBrains Mono, monospace" font-size="9" text-anchor="middle">FIFO</text><text x="340" y="328" fill="#D7E1EA" font-family="JetBrains Mono, monospace" font-size="12" font-weight="700" text-anchor="middle">(1,0)  id=1</text><rect x="440" y="200" width="140" height="140" rx="10"
              fill="#1B2230" stroke="#F5B14B" stroke-width="1.5"/><rect x="462" y="255" width="18" height="30" rx="2" fill="#0A0E13" stroke="#F5B14B" stroke-width="1"/><rect x="484" y="255" width="18" height="30" rx="2" fill="#0A0E13" stroke="#F5B14B" stroke-width="1"/><rect x="506" y="255" width="18" height="30" rx="2" fill="transparent" stroke="#3B4654" stroke-width="1"/><rect x="528" y="255" width="18" height="30" rx="2" fill="transparent" stroke="#3B4654" stroke-width="1"/><text x="510" y="305" fill="#F5B14B" font-family="JetBrains Mono, monospace" font-size="9" text-anchor="middle">FIFO</text><text x="510" y="328" fill="#D7E1EA" font-family="JetBrains Mono, monospace" font-size="12" font-weight="700" text-anchor="middle">(2,0)  id=2</text><rect x="610" y="200" width="140" height="140" rx="10"
              fill="#1B2230" stroke="#F5B14B" stroke-width="1.5"/><rect x="632" y="255" width="18" height="30" rx="2" fill="#0A0E13" stroke="#F5B14B" stroke-width="1"/><rect x="654" y="255" width="18" height="30" rx="2" fill="#0A0E13" stroke="#F5B14B" stroke-width="1"/><rect x="676" y="255" width="18" height="30" rx="2" fill="transparent" stroke="#3B4654" stroke-width="1"/><rect x="698" y="255" width="18" height="30" rx="2" fill="transparent" stroke="#3B4654" stroke-width="1"/><text x="680" y="305" fill="#F5B14B" font-family="JetBrains Mono, monospace" font-size="9" text-anchor="middle">FIFO</text><text x="680" y="328" fill="#D7E1EA" font-family="JetBrains Mono, monospace" font-size="12" font-weight="700" text-anchor="middle">(3,0)  id=3</text><rect x="100" y="370" width="140" height="140" rx="10"
              fill="#1B2230" stroke="#F5B14B" stroke-width="1.5"/><rect x="122" y="425" width="18" height="30" rx="2" fill="#0A0E13" stroke="#F5B14B" stroke-width="1"/><rect x="144" y="425" width="18" height="30" rx="2" fill="#0A0E13" stroke="#F5B14B" stroke-width="1"/><rect x="166" y="425" width="18" height="30" rx="2" fill="transparent" stroke="#3B4654" stroke-width="1"/><rect x="188" y="425" width="18" height="30" rx="2" fill="transparent" stroke="#3B4654" stroke-width="1"/><text x="170" y="475" fill="#F5B14B" font-family="JetBrains Mono, monospace" font-size="9" text-anchor="middle">FIFO</text><text x="170" y="498" fill="#D7E1EA" font-family="JetBrains Mono, monospace" font-size="12" font-weight="700" text-anchor="middle">(0,1)  id=4</text><rect x="270" y="370" width="140" height="140" rx="10"
              fill="#1B2230" stroke="#F5B14B" stroke-width="1.5"/><rect x="292" y="425" width="18" height="30" rx="2" fill="#0A0E13" stroke="#F5B14B" stroke-width="1"/><rect x="314" y="425" width="18" height="30" rx="2" fill="#0A0E13" stroke="#F5B14B" stroke-width="1"/><rect x="336" y="425" width="18" height="30" rx="2" fill="transparent" stroke="#3B4654" stroke-width="1"/><rect x="358" y="425" width="18" height="30" rx="2" fill="transparent" stroke="#3B4654" stroke-width="1"/><text x="340" y="475" fill="#F5B14B" font-family="JetBrains Mono, monospace" font-size="9" text-anchor="middle">FIFO</text><text x="340" y="498" fill="#D7E1EA" font-family="JetBrains Mono, monospace" font-size="12" font-weight="700" text-anchor="middle">(1,1)  id=5</text><rect x="440" y="370" width="140" height="140" rx="10"
              fill="#1B2230" stroke="#F5B14B" stroke-width="1.5"/><rect x="462" y="425" width="18" height="30" rx="2" fill="#0A0E13" stroke="#F5B14B" stroke-width="1"/><rect x="484" y="425" width="18" height="30" rx="2" fill="#0A0E13" stroke="#F5B14B" stroke-width="1"/><rect x="506" y="425" width="18" height="30" rx="2" fill="transparent" stroke="#3B4654" stroke-width="1"/><rect x="528" y="425" width="18" height="30" rx="2" fill="transparent" stroke="#3B4654" stroke-width="1"/><text x="510" y="475" fill="#F5B14B" font-family="JetBrains Mono, monospace" font-size="9" text-anchor="middle">FIFO</text><text x="510" y="498" fill="#D7E1EA" font-family="JetBrains Mono, monospace" font-size="12" font-weight="700" text-anchor="middle">(2,1)  id=6</text><rect x="610" y="370" width="140" height="140" rx="10"
              fill="#1B2230" stroke="#F5B14B" stroke-width="1.5"/><rect x="632" y="425" width="18" height="30" rx="2" fill="#0A0E13" stroke="#F5B14B" stroke-width="1"/><rect x="654" y="425" width="18" height="30" rx="2" fill="#0A0E13" stroke="#F5B14B" stroke-width="1"/><rect x="676" y="425" width="18" height="30" rx="2" fill="transparent" stroke="#3B4654" stroke-width="1"/><rect x="698" y="425" width="18" height="30" rx="2" fill="transparent" stroke="#3B4654" stroke-width="1"/><text x="680" y="475" fill="#F5B14B" font-family="JetBrains Mono, monospace" font-size="9" text-anchor="middle">FIFO</text><text x="680" y="498" fill="#D7E1EA" font-family="JetBrains Mono, monospace" font-size="12" font-weight="700" text-anchor="middle">(3,1)  id=7</text><rect x="100" y="540" width="140" height="140" rx="10"
              fill="#1B2230" stroke="#F5B14B" stroke-width="1.5"/><rect x="122" y="595" width="18" height="30" rx="2" fill="#0A0E13" stroke="#F5B14B" stroke-width="1"/><rect x="144" y="595" width="18" height="30" rx="2" fill="#0A0E13" stroke="#F5B14B" stroke-width="1"/><rect x="166" y="595" width="18" height="30" rx="2" fill="transparent" stroke="#3B4654" stroke-width="1"/><rect x="188" y="595" width="18" height="30" rx="2" fill="transparent" stroke="#3B4654" stroke-width="1"/><text x="170" y="645" fill="#F5B14B" font-family="JetBrains Mono, monospace" font-size="9" text-anchor="middle">FIFO</text><text x="170" y="668" fill="#D7E1EA" font-family="JetBrains Mono, monospace" font-size="12" font-weight="700" text-anchor="middle">(0,2)  id=8</text><rect x="270" y="540" width="140" height="140" rx="10"
              fill="#1B2230" stroke="#F5B14B" stroke-width="1.5"/><rect x="292" y="595" width="18" height="30" rx="2" fill="#0A0E13" stroke="#F5B14B" stroke-width="1"/><rect x="314" y="595" width="18" height="30" rx="2" fill="#0A0E13" stroke="#F5B14B" stroke-width="1"/><rect x="336" y="595" width="18" height="30" rx="2" fill="transparent" stroke="#3B4654" stroke-width="1"/><rect x="358" y="595" width="18" height="30" rx="2" fill="transparent" stroke="#3B4654" stroke-width="1"/><text x="340" y="645" fill="#F5B14B" font-family="JetBrains Mono, monospace" font-size="9" text-anchor="middle">FIFO</text><text x="340" y="668" fill="#D7E1EA" font-family="JetBrains Mono, monospace" font-size="12" font-weight="700" text-anchor="middle">(1,2)  id=9</text><rect x="440" y="540" width="140" height="140" rx="10"
              fill="#1B2230" stroke="#F5B14B" stroke-width="1.5"/><rect x="462" y="595" width="18" height="30" rx="2" fill="#0A0E13" stroke="#F5B14B" stroke-width="1"/><rect x="484" y="595" width="18" height="30" rx="2" fill="#0A0E13" stroke="#F5B14B" stroke-width="1"/><rect x="506" y="595" width="18" height="30" rx="2" fill="transparent" stroke="#3B4654" stroke-width="1"/><rect x="528" y="595" width="18" height="30" rx="2" fill="transparent" stroke="#3B4654" stroke-width="1"/><text x="510" y="645" fill="#F5B14B" font-family="JetBrains Mono, monospace" font-size="9" text-anchor="middle">FIFO</text><text x="510" y="668" fill="#D7E1EA" font-family="JetBrains Mono, monospace" font-size="12" font-weight="700" text-anchor="middle">(2,2)  id=10</text><rect x="610" y="540" width="140" height="140" rx="10"
              fill="#1B2230" stroke="#F5B14B" stroke-width="1.5"/><rect x="632" y="595" width="18" height="30" rx="2" fill="#0A0E13" stroke="#F5B14B" stroke-width="1"/><rect x="654" y="595" width="18" height="30" rx="2" fill="#0A0E13" stroke="#F5B14B" stroke-width="1"/><rect x="676" y="595" width="18" height="30" rx="2" fill="transparent" stroke="#3B4654" stroke-width="1"/><rect x="698" y="595" width="18" height="30" rx="2" fill="transparent" stroke="#3B4654" stroke-width="1"/><text x="680" y="645" fill="#F5B14B" font-family="JetBrains Mono, monospace" font-size="9" text-anchor="middle">FIFO</text><text x="680" y="668" fill="#D7E1EA" font-family="JetBrains Mono, monospace" font-size="12" font-weight="700" text-anchor="middle">(3,2)  id=11</text><rect x="100" y="710" width="140" height="140" rx="10"
              fill="#1B2230" stroke="#F5B14B" stroke-width="1.5"/><rect x="122" y="765" width="18" height="30" rx="2" fill="#0A0E13" stroke="#F5B14B" stroke-width="1"/><rect x="144" y="765" width="18" height="30" rx="2" fill="#0A0E13" stroke="#F5B14B" stroke-width="1"/><rect x="166" y="765" width="18" height="30" rx="2" fill="transparent" stroke="#3B4654" stroke-width="1"/><rect x="188" y="765" width="18" height="30" rx="2" fill="transparent" stroke="#3B4654" stroke-width="1"/><text x="170" y="815" fill="#F5B14B" font-family="JetBrains Mono, monospace" font-size="9" text-anchor="middle">FIFO</text><text x="170" y="838" fill="#D7E1EA" font-family="JetBrains Mono, monospace" font-size="12" font-weight="700" text-anchor="middle">(0,3)  id=12</text><rect x="270" y="710" width="140" height="140" rx="10"
              fill="#1B2230" stroke="#F5B14B" stroke-width="1.5"/><rect x="292" y="765" width="18" height="30" rx="2" fill="#0A0E13" stroke="#F5B14B" stroke-width="1"/><rect x="314" y="765" width="18" height="30" rx="2" fill="#0A0E13" stroke="#F5B14B" stroke-width="1"/><rect x="336" y="765" width="18" height="30" rx="2" fill="transparent" stroke="#3B4654" stroke-width="1"/><rect x="358" y="765" width="18" height="30" rx="2" fill="transparent" stroke="#3B4654" stroke-width="1"/><text x="340" y="815" fill="#F5B14B" font-family="JetBrains Mono, monospace" font-size="9" text-anchor="middle">FIFO</text><text x="340" y="838" fill="#D7E1EA" font-family="JetBrains Mono, monospace" font-size="12" font-weight="700" text-anchor="middle">(1,3)  id=13</text><rect x="440" y="710" width="140" height="140" rx="10"
              fill="#1B2230" stroke="#F5B14B" stroke-width="1.5"/><rect x="462" y="765" width="18" height="30" rx="2" fill="#0A0E13" stroke="#F5B14B" stroke-width="1"/><rect x="484" y="765" width="18" height="30" rx="2" fill="#0A0E13" stroke="#F5B14B" stroke-width="1"/><rect x="506" y="765" width="18" height="30" rx="2" fill="transparent" stroke="#3B4654" stroke-width="1"/><rect x="528" y="765" width="18" height="30" rx="2" fill="transparent" stroke="#3B4654" stroke-width="1"/><text x="510" y="815" fill="#F5B14B" font-family="JetBrains Mono, monospace" font-size="9" text-anchor="middle">FIFO</text><text x="510" y="838" fill="#D7E1EA" font-family="JetBrains Mono, monospace" font-size="12" font-weight="700" text-anchor="middle">(2,3)  id=14</text><rect x="610" y="710" width="140" height="140" rx="10"
              fill="#1B2230" stroke="#F5B14B" stroke-width="1.5"/><rect x="632" y="765" width="18" height="30" rx="2" fill="#0A0E13" stroke="#F5B14B" stroke-width="1"/><rect x="654" y="765" width="18" height="30" rx="2" fill="#0A0E13" stroke="#F5B14B" stroke-width="1"/><rect x="676" y="765" width="18" height="30" rx="2" fill="transparent" stroke="#3B4654" stroke-width="1"/><rect x="698" y="765" width="18" height="30" rx="2" fill="transparent" stroke="#3B4654" stroke-width="1"/><text x="680" y="815" fill="#F5B14B" font-family="JetBrains Mono, monospace" font-size="9" text-anchor="middle">FIFO</text><text x="680" y="838" fill="#D7E1EA" font-family="JetBrains Mono, monospace" font-size="12" font-weight="700" text-anchor="middle">(3,3)  id=15</text></svg>